<svg width="20" height="18" viewBox="0 0 20 18" fill="none" xmlns="http://www.w3.org/2000/svg">
<path d="M9.08334 2.58333V1.66667C9.08334 1.42355 9.17992 1.19039 9.35183 1.01849C9.52374 0.846577 9.7569 0.75 10 0.75C10.2431 0.75 10.4763 0.846577 10.6482 1.01849C10.8201 1.19039 10.9167 1.42355 10.9167 1.66667V2.58333H13.6667V1.66667C13.6667 1.42355 13.7633 1.19039 13.9352 1.01849C14.1071 0.846577 14.3402 0.75 14.5833 0.75C14.8265 0.75 15.0596 0.846577 15.2315 1.01849C15.4034 1.19039 15.5 1.42355 15.5 1.66667V2.58333H16.4167C17.146 2.58333 17.8455 2.87306 18.3612 3.38879C18.8769 3.90451 19.1667 4.60399 19.1667 5.33333V14.5C19.1667 15.2293 18.8769 15.9288 18.3612 16.4445C17.8455 16.9603 17.146 17.25 16.4167 17.25H3.58334C2.854 17.25 2.15452 16.9603 1.6388 16.4445C1.12307 15.9288 0.833344 15.2293 0.833344 14.5L0.833344 5.33333C0.833344 4.60399 1.12307 3.90451 1.6388 3.38879C2.15452 2.87306 2.854 2.58333 3.58334 2.58333H4.50001V1.66667C4.50001 1.42355 4.59659 1.19039 4.7685 1.01849C4.9404 0.846577 5.17356 0.75 5.41668 0.75C5.65979 0.75 5.89295 0.846577 6.06486 1.01849C6.23677 1.19039 6.33334 1.42355 6.33334 1.66667V2.58333H9.08334ZM9.08334 4.41667H6.33334V5.33333C6.33334 5.57645 6.23677 5.80961 6.06486 5.98151C5.89295 6.15342 5.65979 6.25 5.41668 6.25C5.17356 6.25 4.9404 6.15342 4.7685 5.98151C4.59659 5.80961 4.50001 5.57645 4.50001 5.33333V4.41667H3.58334C3.34023 4.41667 3.10707 4.51324 2.93516 4.68515C2.76325 4.85706 2.66668 5.09022 2.66668 5.33333V14.5C2.66668 14.7431 2.76325 14.9763 2.93516 15.1482C3.10707 15.3201 3.34023 15.4167 3.58334 15.4167H16.4167C16.6598 15.4167 16.893 15.3201 17.0649 15.1482C17.2368 14.9763 17.3333 14.7431 17.3333 14.5V5.33333C17.3333 5.09022 17.2368 4.85706 17.0649 4.68515C16.893 4.51324 16.6598 4.41667 16.4167 4.41667H15.5V5.33333C15.5 5.57645 15.4034 5.80961 15.2315 5.98151C15.0596 6.15342 14.8265 6.25 14.5833 6.25C14.3402 6.25 14.1071 6.15342 13.9352 5.98151C13.7633 5.80961 13.6667 5.57645 13.6667 5.33333V4.41667H10.9167V5.33333C10.9167 5.57645 10.8201 5.80961 10.6482 5.98151C10.4763 6.15342 10.2431 6.25 10 6.25C9.7569 6.25 9.52374 6.15342 9.35183 5.98151C9.17992 5.80961 9.08334 5.57645 9.08334 5.33333V4.41667ZM3.58334 8.08333H5.41668V9.91667H3.58334V8.08333ZM3.58334 11.75H5.41668V13.5833H3.58334V11.75ZM14.5833 11.75H16.4167V13.5833H14.5833V11.75ZM14.5833 8.08333H16.4167V9.91667H14.5833V8.08333ZM7.25001 8.08333H9.08334V9.91667H7.25001V8.08333ZM10.9167 8.08333H12.75V9.91667H10.9167V8.08333ZM10.9167 11.75H12.75V13.5833H10.9167V11.75ZM7.25001 11.75H9.08334V13.5833H7.25001V11.75Z" fill="black"/>
</svg>
