<svg width="18" height="17" viewBox="0 0 18 17" fill="none" xmlns="http://www.w3.org/2000/svg">
<path d="M7.47638 13.0736C8.21215 13.0736 8.94072 12.9287 9.62048 12.6471C10.3002 12.3655 10.9179 11.9528 11.4382 11.4326C11.9584 10.9123 12.3711 10.2947 12.6527 9.61491C12.9343 8.93515 13.0792 8.20659 13.0792 7.47083C13.0792 6.73506 12.9343 6.0065 12.6527 5.32674C12.3711 4.64698 11.9584 4.02934 11.4382 3.50907C10.9179 2.98881 10.3002 2.57611 9.62048 2.29454C8.94072 2.01298 8.21215 1.86806 7.47638 1.86806C5.99042 1.86806 4.56532 2.45835 3.51459 3.50907C2.46386 4.55979 1.87357 5.98488 1.87357 7.47083C1.87357 8.95677 2.46386 10.3819 3.51459 11.4326C4.56532 12.4833 5.99042 13.0736 7.47638 13.0736ZM13.378 12.052L16.721 15.395C16.8101 15.4812 16.8812 15.5843 16.9301 15.6983C16.9789 15.8122 17.0046 15.9348 17.0056 16.0588C17.0066 16.1827 16.9829 16.3057 16.9358 16.4204C16.8888 16.5351 16.8194 16.6394 16.7316 16.727C16.6439 16.8146 16.5396 16.8838 16.4248 16.9307C16.31 16.9776 16.187 17.0011 16.063 17C15.9391 16.9988 15.8165 16.9729 15.7027 16.9239C15.5888 16.8749 15.4858 16.8037 15.3997 16.7145L12.0567 13.3715C10.5556 14.5367 8.66679 15.0861 6.77486 14.9077C4.88294 14.7294 3.1301 13.8368 1.87315 12.4116C0.6162 10.9864 -0.0503595 9.13573 0.00916209 7.23637C0.0686836 5.33701 0.849811 3.53173 2.19353 2.18802C3.53725 0.844311 5.34255 0.06319 7.24192 0.00366889C9.1413 -0.0558522 10.992 0.610702 12.4172 1.86764C13.8424 3.12458 14.735 4.87741 14.9134 6.76932C15.0917 8.66122 14.5423 10.55 13.3771 12.0511L13.378 12.052Z" fill="white"/>
</svg>
