<svg width="1180" height="65" viewBox="0 0 1180 65" fill="none" xmlns="http://www.w3.org/2000/svg">
<path d="M0.5 30C0.5 13.7076 13.7076 0.5 30 0.5H1150C1166.29 0.5 1179.5 13.7076 1179.5 30V35C1179.5 51.2924 1166.29 64.5 1150 64.5H30C13.7076 64.5 0.5 51.2924 0.5 35V30Z" fill="white" stroke="url(#paint0_linear_60_34)"/>
<g clip-path="url(#clip0_60_34)">
<path d="M1139.67 39.9188C1140.62 39.9188 1141.56 39.7312 1142.44 39.3668C1143.32 39.0025 1144.12 38.4684 1144.8 37.7951C1145.47 37.1218 1146 36.3225 1146.37 35.4428C1146.73 34.5631 1146.92 33.6203 1146.92 32.6681C1146.92 31.716 1146.73 30.7731 1146.37 29.8934C1146 29.0137 1145.47 28.2144 1144.8 27.5412C1144.12 26.8679 1143.32 26.3338 1142.44 25.9694C1141.56 25.605 1140.62 25.4175 1139.67 25.4175C1137.75 25.4175 1135.9 26.1814 1134.54 27.5412C1133.18 28.9009 1132.42 30.7451 1132.42 32.6681C1132.42 34.5911 1133.18 36.4353 1134.54 37.7951C1135.9 39.1549 1137.75 39.9188 1139.67 39.9188ZM1147.31 38.5967L1151.63 42.9229C1151.75 43.0345 1151.84 43.1679 1151.9 43.3154C1151.97 43.4629 1152 43.6215 1152 43.7819C1152 43.9424 1151.97 44.1015 1151.91 44.25C1151.85 44.3984 1151.76 44.5333 1151.65 44.6467C1151.53 44.76 1151.4 44.8497 1151.25 44.9103C1151.1 44.971 1150.94 45.0015 1150.78 44.9999C1150.62 44.9984 1150.46 44.965 1150.31 44.9016C1150.17 44.8381 1150.03 44.746 1149.92 44.6305L1145.6 40.3043C1143.65 41.8122 1141.21 42.5232 1138.76 42.2924C1136.31 42.0616 1134.04 40.9064 1132.42 39.0621C1130.79 37.2177 1129.93 34.8227 1130 32.3647C1130.08 29.9067 1131.09 27.5705 1132.83 25.8316C1134.57 24.0926 1136.91 23.0818 1139.36 23.0047C1141.82 22.9277 1144.22 23.7903 1146.06 25.4169C1147.91 27.0436 1149.06 29.3119 1149.29 31.7603C1149.52 34.2086 1148.81 36.6529 1147.3 38.5955L1147.31 38.5967Z" fill="#80B8D0"/>
</g>
<path d="M32.3172 33.275C32.3172 31.575 32.7005 30.05 33.4672 28.7C34.2339 27.3333 35.2755 26.2667 36.5922 25.5C37.9255 24.7333 39.4005 24.35 41.0172 24.35C42.9172 24.35 44.5755 24.8083 45.9922 25.725C47.4089 26.6417 48.4422 27.9417 49.0922 29.625H46.3672C45.8839 28.575 45.1839 27.7667 44.2672 27.2C43.3672 26.6333 42.2839 26.35 41.0172 26.35C39.8005 26.35 38.7089 26.6333 37.7422 27.2C36.7755 27.7667 36.0172 28.575 35.4672 29.625C34.9172 30.6583 34.6422 31.875 34.6422 33.275C34.6422 34.6583 34.9172 35.875 35.4672 36.925C36.0172 37.9583 36.7755 38.7583 37.7422 39.325C38.7089 39.8917 39.8005 40.175 41.0172 40.175C42.2839 40.175 43.3672 39.9 44.2672 39.35C45.1839 38.7833 45.8839 37.975 46.3672 36.925H49.0922C48.4422 38.5917 47.4089 39.8833 45.9922 40.8C44.5755 41.7 42.9172 42.15 41.0172 42.15C39.4005 42.15 37.9255 41.775 36.5922 41.025C35.2755 40.2583 34.2339 39.2 33.4672 37.85C32.7005 36.5 32.3172 34.975 32.3172 33.275ZM51.6287 35.1C51.6287 33.7 51.912 32.475 52.4787 31.425C53.0454 30.3583 53.8204 29.5333 54.8037 28.95C55.8037 28.3667 56.912 28.075 58.1287 28.075C59.3287 28.075 60.3704 28.3333 61.2537 28.85C62.137 29.3667 62.7954 30.0167 63.2287 30.8V28.3H65.5287V42H63.2287V39.45C62.7787 40.25 62.1037 40.9167 61.2037 41.45C60.3204 41.9667 59.287 42.225 58.1037 42.225C56.887 42.225 55.787 41.925 54.8037 41.325C53.8204 40.725 53.0454 39.8833 52.4787 38.8C51.912 37.7167 51.6287 36.4833 51.6287 35.1ZM63.2287 35.125C63.2287 34.0917 63.0204 33.1917 62.6037 32.425C62.187 31.6583 61.6204 31.075 60.9037 30.675C60.2037 30.2583 59.4287 30.05 58.5787 30.05C57.7287 30.05 56.9537 30.25 56.2537 30.65C55.5537 31.05 54.9954 31.6333 54.5787 32.4C54.162 33.1667 53.9537 34.0667 53.9537 35.1C53.9537 36.15 54.162 37.0667 54.5787 37.85C54.9954 38.6167 55.5537 39.2083 56.2537 39.625C56.9537 40.025 57.7287 40.225 58.5787 40.225C59.4287 40.225 60.2037 40.025 60.9037 39.625C61.6204 39.2083 62.187 38.6167 62.6037 37.85C63.0204 37.0667 63.2287 36.1583 63.2287 35.125ZM71.6482 30.525C72.0482 29.7417 72.6149 29.1333 73.3482 28.7C74.0982 28.2667 75.0066 28.05 76.0732 28.05V30.4H75.4732C72.9232 30.4 71.6482 31.7833 71.6482 34.55V42H69.3732V28.3H71.6482V30.525ZM79.8744 26.075C79.4411 26.075 79.0744 25.925 78.7744 25.625C78.4744 25.325 78.3244 24.9583 78.3244 24.525C78.3244 24.0917 78.4744 23.725 78.7744 23.425C79.0744 23.125 79.4411 22.975 79.8744 22.975C80.2911 22.975 80.6411 23.125 80.9244 23.425C81.2244 23.725 81.3744 24.0917 81.3744 24.525C81.3744 24.9583 81.2244 25.325 80.9244 25.625C80.6411 25.925 80.2911 26.075 79.8744 26.075ZM80.9744 28.3V42H78.6994V28.3H80.9744ZM103.167 29.675C103.167 31.125 102.667 32.3333 101.667 33.3C100.683 34.25 99.1751 34.725 97.1418 34.725H93.7918V42H91.5168V24.575H97.1418C99.1085 24.575 100.6 25.05 101.617 26C102.65 26.95 103.167 28.175 103.167 29.675ZM97.1418 32.85C98.4085 32.85 99.3418 32.575 99.9418 32.025C100.542 31.475 100.842 30.6917 100.842 29.675C100.842 27.525 99.6085 26.45 97.1418 26.45H93.7918V32.85H97.1418ZM108.269 30.525C108.669 29.7417 109.236 29.1333 109.969 28.7C110.719 28.2667 111.628 28.05 112.694 28.05V30.4H112.094C109.544 30.4 108.269 31.7833 108.269 34.55V42H105.994V28.3H108.269V30.525ZM121.296 42.225C120.012 42.225 118.846 41.9333 117.796 41.35C116.762 40.7667 115.946 39.9417 115.346 38.875C114.762 37.7917 114.471 36.5417 114.471 35.125C114.471 33.725 114.771 32.4917 115.371 31.425C115.987 30.3417 116.821 29.5167 117.871 28.95C118.921 28.3667 120.096 28.075 121.396 28.075C122.696 28.075 123.871 28.3667 124.921 28.95C125.971 29.5167 126.796 30.3333 127.396 31.4C128.012 32.4667 128.321 33.7083 128.321 35.125C128.321 36.5417 128.004 37.7917 127.371 38.875C126.754 39.9417 125.912 40.7667 124.846 41.35C123.779 41.9333 122.596 42.225 121.296 42.225ZM121.296 40.225C122.112 40.225 122.879 40.0333 123.596 39.65C124.312 39.2667 124.887 38.6917 125.321 37.925C125.771 37.1583 125.996 36.225 125.996 35.125C125.996 34.025 125.779 33.0917 125.346 32.325C124.912 31.5583 124.346 30.9917 123.646 30.625C122.946 30.2417 122.187 30.05 121.371 30.05C120.537 30.05 119.771 30.2417 119.071 30.625C118.387 30.9917 117.837 31.5583 117.421 32.325C117.004 33.0917 116.796 34.025 116.796 35.125C116.796 36.2417 116.996 37.1833 117.396 37.95C117.812 38.7167 118.362 39.2917 119.046 39.675C119.729 40.0417 120.479 40.225 121.296 40.225ZM136.412 39.9L140.662 28.3H143.087L137.712 42H135.062L129.687 28.3H132.137L136.412 39.9ZM146.5 26.075C146.067 26.075 145.7 25.925 145.4 25.625C145.1 25.325 144.95 24.9583 144.95 24.525C144.95 24.0917 145.1 23.725 145.4 23.425C145.7 23.125 146.067 22.975 146.5 22.975C146.917 22.975 147.267 23.125 147.55 23.425C147.85 23.725 148 24.0917 148 24.525C148 24.9583 147.85 25.325 147.55 25.625C147.267 25.925 146.917 26.075 146.5 26.075ZM147.6 28.3V42H145.325V28.3H147.6ZM158.153 28.05C159.819 28.05 161.169 28.5583 162.203 29.575C163.236 30.575 163.753 32.025 163.753 33.925V42H161.503V34.25C161.503 32.8833 161.161 31.8417 160.478 31.125C159.794 30.3917 158.861 30.025 157.678 30.025C156.478 30.025 155.519 30.4 154.803 31.15C154.103 31.9 153.753 32.9917 153.753 34.425V42H151.478V28.3H153.753V30.25C154.203 29.55 154.811 29.0083 155.578 28.625C156.361 28.2417 157.219 28.05 158.153 28.05ZM172.319 42.225C171.269 42.225 170.327 42.05 169.494 41.7C168.661 41.3333 168.002 40.8333 167.519 40.2C167.036 39.55 166.769 38.8083 166.719 37.975H169.069C169.136 38.6583 169.452 39.2167 170.019 39.65C170.602 40.0833 171.361 40.3 172.294 40.3C173.161 40.3 173.844 40.1083 174.344 39.725C174.844 39.3417 175.094 38.8583 175.094 38.275C175.094 37.675 174.827 37.2333 174.294 36.95C173.761 36.65 172.936 36.3583 171.819 36.075C170.802 35.8083 169.969 35.5417 169.319 35.275C168.686 34.9917 168.136 34.5833 167.669 34.05C167.219 33.5 166.994 32.7833 166.994 31.9C166.994 31.2 167.202 30.5583 167.619 29.975C168.036 29.3917 168.627 28.9333 169.394 28.6C170.161 28.25 171.036 28.075 172.019 28.075C173.536 28.075 174.761 28.4583 175.694 29.225C176.627 29.9917 177.127 31.0417 177.194 32.375H174.919C174.869 31.6583 174.577 31.0833 174.044 30.65C173.527 30.2167 172.827 30 171.944 30C171.127 30 170.477 30.175 169.994 30.525C169.511 30.875 169.269 31.3333 169.269 31.9C169.269 32.35 169.411 32.725 169.694 33.025C169.994 33.3083 170.361 33.5417 170.794 33.725C171.244 33.8917 171.861 34.0833 172.644 34.3C173.627 34.5667 174.427 34.8333 175.044 35.1C175.661 35.35 176.186 35.7333 176.619 36.25C177.069 36.7667 177.302 37.4417 177.319 38.275C177.319 39.025 177.111 39.7 176.694 40.3C176.277 40.9 175.686 41.375 174.919 41.725C174.169 42.0583 173.302 42.225 172.319 42.225ZM181.705 26.075C181.272 26.075 180.905 25.925 180.605 25.625C180.305 25.325 180.155 24.9583 180.155 24.525C180.155 24.0917 180.305 23.725 180.605 23.425C180.905 23.125 181.272 22.975 181.705 22.975C182.122 22.975 182.472 23.125 182.755 23.425C183.055 23.725 183.205 24.0917 183.205 24.525C183.205 24.9583 183.055 25.325 182.755 25.625C182.472 25.925 182.122 26.075 181.705 26.075ZM182.805 28.3V42H180.53V28.3H182.805Z" fill="url(#paint1_linear_60_34)"/>
<defs>
<linearGradient id="paint0_linear_60_34" x1="7.64178e-06" y1="-30.5" x2="534.134" y2="614.898" gradientUnits="userSpaceOnUse">
<stop stop-color="#80B8D0"/>
<stop offset="1" stop-color="#72CF7B"/>
</linearGradient>
<linearGradient id="paint1_linear_60_34" x1="-4.50001" y1="-3.99997" x2="241.5" y2="88" gradientUnits="userSpaceOnUse">
<stop stop-color="#80B8D0"/>
<stop offset="1" stop-color="#72CF7B"/>
</linearGradient>
<clipPath id="clip0_60_34">
<rect width="24" height="24" fill="white" transform="translate(1129 19)"/>
</clipPath>
</defs>
</svg>
