<svg width="49" height="49" viewBox="0 0 49 49" fill="none" xmlns="http://www.w3.org/2000/svg">
<circle cx="24.3333" cy="24.3333" r="24.0833" fill="url(#paint0_linear_60_21)" stroke="white" stroke-width="0.5"/>
<path d="M25.6473 24.4044L20.6973 19.4544C20.5152 19.2658 20.4144 19.0132 20.4167 18.751C20.4189 18.4888 20.5241 18.2379 20.7095 18.0525C20.8949 17.8671 21.1457 17.762 21.4079 17.7597C21.6701 17.7574 21.9227 17.8582 22.1113 18.0404L27.7683 23.6974C27.9558 23.8849 28.0611 24.1392 28.0611 24.4044C28.0611 24.6695 27.9558 24.9238 27.7683 25.1114L22.1113 30.7684C21.9227 30.9505 21.6701 31.0513 21.4079 31.049C21.1457 31.0468 20.8949 30.9416 20.7095 30.7562C20.5241 30.5708 20.4189 30.32 20.4167 30.0578C20.4144 29.7956 20.5152 29.543 20.6973 29.3544L25.6473 24.4044Z" fill="white"/>
<defs>
<linearGradient id="paint0_linear_60_21" x1="-32.6666" y1="-35.6666" x2="66.3334" y2="71.8334" gradientUnits="userSpaceOnUse">
<stop stop-color="#8CDDFF"/>
<stop offset="1" stop-color="#A3D0A8"/>
</linearGradient>
</defs>
</svg>
