<svg width="49" height="49" viewBox="0 0 49 49" fill="none" xmlns="http://www.w3.org/2000/svg">
<circle cx="24.3333" cy="24.3333" r="24.0833" fill="url(#paint0_linear_60_28)" stroke="white" stroke-width="0.5"/>
<path d="M22.757 24L27.707 28.95C27.8025 29.0422 27.8787 29.1526 27.9311 29.2746C27.9835 29.3966 28.0111 29.5278 28.0123 29.6606C28.0134 29.7934 27.9881 29.9251 27.9378 30.048C27.8875 30.1708 27.8133 30.2825 27.7194 30.3764C27.6255 30.4703 27.5139 30.5445 27.391 30.5948C27.2681 30.6451 27.1364 30.6704 27.0036 30.6692C26.8708 30.6681 26.7396 30.6405 26.6176 30.5881C26.4956 30.5357 26.3852 30.4595 26.293 30.364L20.636 24.707C20.4485 24.5195 20.3432 24.2652 20.3432 24C20.3432 23.7348 20.4485 23.4805 20.636 23.293L26.293 17.636C26.4816 17.4538 26.7342 17.353 26.9964 17.3553C27.2586 17.3576 27.5094 17.4628 27.6948 17.6482C27.8802 17.8336 27.9854 18.0844 27.9877 18.3466C27.99 18.6088 27.8892 18.8614 27.707 19.05L22.757 24Z" fill="white"/>
<defs>
<linearGradient id="paint0_linear_60_28" x1="-32.6666" y1="-35.6666" x2="66.3334" y2="71.8334" gradientUnits="userSpaceOnUse">
<stop stop-color="#8CDDFF"/>
<stop offset="1" stop-color="#A3D0A8"/>
</linearGradient>
</defs>
</svg>
